<svg width="150" height="150" viewBox="0 0 150 150" fill="none" xmlns="http://www.w3.org/2000/svg">
<path d="M105 20.625C105 19.1332 105.592 17.7024 106.647 16.6475C107.702 15.5926 109.133 15 110.625 15H129.375C130.867 15 132.297 15.5926 133.352 16.6475C134.407 17.7024 135 19.1332 135 20.625V39.375C135 40.8668 134.407 42.2976 133.352 43.3525C132.297 44.4074 130.867 45 129.375 45C127.883 45 126.452 44.4074 125.397 43.3525C124.342 42.2976 123.75 40.8668 123.75 39.375V34.2L90.2247 67.725C89.17 68.7784 87.7403 69.37 86.2497 69.37C84.7591 69.37 83.3294 68.7784 82.2747 67.725L63.7497 49.2L32.0997 80.85C31.5847 81.4026 30.9637 81.8459 30.2737 82.1534C29.5837 82.4608 28.8389 82.6261 28.0836 82.6394C27.3283 82.6528 26.5781 82.5138 25.8777 82.2309C25.1773 81.948 24.541 81.5269 24.0069 80.9928C23.4728 80.4586 23.0517 79.8224 22.7688 79.122C22.4859 78.4216 22.3469 77.6714 22.3603 76.9161C22.3736 76.1608 22.5389 75.416 22.8463 74.726C23.1538 74.036 23.597 73.415 24.1497 72.9L59.7747 37.275C60.8294 36.2216 62.2591 35.6299 63.7497 35.6299C65.2403 35.6299 66.67 36.2216 67.7247 37.275L86.2497 55.8L115.8 26.25H110.625C109.133 26.25 107.702 25.6574 106.647 24.6025C105.592 23.5476 105 22.1168 105 20.625ZM28.1247 105C29.6165 105 31.0473 105.593 32.1022 106.648C33.1571 107.702 33.7497 109.133 33.7497 110.625V129.375C33.7497 130.867 33.1571 132.298 32.1022 133.352C31.0473 134.407 29.6165 135 28.1247 135C26.6328 135 25.2021 134.407 24.1472 133.352C23.0923 132.298 22.4997 130.867 22.4997 129.375V110.625C22.4997 109.133 23.0923 107.702 24.1472 106.648C25.2021 105.593 26.6328 105 28.1247 105ZM63.7497 88.125C63.7497 86.6332 63.1571 85.2024 62.1022 84.1475C61.0473 83.0926 59.6165 82.5 58.1247 82.5C56.6328 82.5 55.2021 83.0926 54.1472 84.1475C53.0923 85.2024 52.4997 86.6332 52.4997 88.125V129.375C52.4997 130.867 53.0923 132.298 54.1472 133.352C55.2021 134.407 56.6328 135 58.1247 135C59.6165 135 61.0473 134.407 62.1022 133.352C63.1571 132.298 63.7497 130.867 63.7497 129.375V88.125ZM88.1247 97.5C89.6165 97.5 91.0473 98.0926 92.1022 99.1475C93.1571 100.202 93.7497 101.633 93.7497 103.125V129.375C93.7497 130.867 93.1571 132.298 92.1022 133.352C91.0473 134.407 89.6165 135 88.1247 135C86.6328 135 85.2021 134.407 84.1472 133.352C83.0923 132.298 82.4997 130.867 82.4997 129.375V103.125C82.4997 101.633 83.0923 100.202 84.1472 99.1475C85.2021 98.0926 86.6328 97.5 88.1247 97.5ZM123.75 73.125C123.75 71.6332 123.157 70.2024 122.102 69.1475C121.047 68.0926 119.617 67.5 118.125 67.5C116.633 67.5 115.202 68.0926 114.147 69.1475C113.092 70.2024 112.5 71.6332 112.5 73.125V129.375C112.5 130.867 113.092 132.298 114.147 133.352C115.202 134.407 116.633 135 118.125 135C119.617 135 121.047 134.407 122.102 133.352C123.157 132.298 123.75 130.867 123.75 129.375V73.125Z" fill="#1E1D2F"/>
<rect x="52" y="82" width="12" height="53" rx="6" fill="#00FFC2"/>
</svg>
