<svg width="188" height="150" viewBox="0 0 188 150" fill="none" xmlns="http://www.w3.org/2000/svg">
<g clip-path="url(#clip0_550_469)">
<ellipse cx="14" cy="99.5" rx="9" ry="9.5" fill="#00FFC2"/>
<ellipse cx="172" cy="99.5" rx="9" ry="9.5" fill="#00FFC2"/>
<path d="M94.7461 24.9609L66.3867 47.9297C61.6699 51.7383 60.7617 58.5938 64.3359 63.4863C68.1152 68.7012 75.4688 69.7266 80.5371 65.7715L109.629 43.1543C111.68 41.5723 114.609 41.9238 116.221 43.9746C117.832 46.0254 117.451 48.9551 115.4 50.5664L109.277 55.3125L150 92.8125V37.5H149.795L148.652 36.7676L127.383 23.1445C122.9 20.2734 117.656 18.75 112.324 18.75C105.938 18.75 99.7266 20.9473 94.7461 24.9609ZM101.426 61.4062L86.2793 73.1836C77.0508 80.3906 63.6621 78.5156 56.748 69.0234C50.2441 60.0879 51.8848 47.6074 60.4688 40.6641L84.8438 20.9473C81.4453 19.5117 77.7832 18.7793 74.0625 18.7793C68.5547 18.75 63.1934 20.3906 58.5938 23.4375L37.5 37.5V103.125H45.7617L72.5391 127.559C78.2812 132.803 87.1582 132.393 92.4023 126.65C94.0137 124.863 95.0977 122.783 95.6543 120.615L100.635 125.186C106.348 130.43 115.254 130.049 120.498 124.336C121.816 122.9 122.783 121.23 123.398 119.502C129.082 123.311 136.816 122.52 141.592 117.305C146.836 111.592 146.455 102.686 140.742 97.4414L101.426 61.4062ZM4.6875 37.5C2.10938 37.5 0 39.6094 0 42.1875V103.125C0 108.311 4.18945 112.5 9.375 112.5H18.75C23.9355 112.5 28.125 108.311 28.125 103.125V37.5H4.6875ZM14.0625 93.75C15.3057 93.75 16.498 94.2439 17.3771 95.1229C18.2561 96.002 18.75 97.1943 18.75 98.4375C18.75 99.6807 18.2561 100.873 17.3771 101.752C16.498 102.631 15.3057 103.125 14.0625 103.125C12.8193 103.125 11.627 102.631 10.7479 101.752C9.86886 100.873 9.375 99.6807 9.375 98.4375C9.375 97.1943 9.86886 96.002 10.7479 95.1229C11.627 94.2439 12.8193 93.75 14.0625 93.75ZM159.375 37.5V103.125C159.375 108.311 163.564 112.5 168.75 112.5H178.125C183.311 112.5 187.5 108.311 187.5 103.125V42.1875C187.5 39.6094 185.391 37.5 182.812 37.5H159.375ZM168.75 98.4375C168.75 97.1943 169.244 96.002 170.123 95.1229C171.002 94.2439 172.194 93.75 173.438 93.75C174.681 93.75 175.873 94.2439 176.752 95.1229C177.631 96.002 178.125 97.1943 178.125 98.4375C178.125 99.6807 177.631 100.873 176.752 101.752C175.873 102.631 174.681 103.125 173.438 103.125C172.194 103.125 171.002 102.631 170.123 101.752C169.244 100.873 168.75 99.6807 168.75 98.4375Z" fill="#1E1D2F"/>
</g>
<defs>
<clipPath id="clip0_550_469">
<rect width="187.5" height="150" fill="white"/>
</clipPath>
</defs>
</svg>
