<svg width="150" height="150" viewBox="0 0 150 150" fill="none" xmlns="http://www.w3.org/2000/svg">
<ellipse cx="66" cy="61" rx="30" ry="28" fill="#00FFC2"/>
<path d="M68.7511 12.5C80.8921 12.5008 92.6183 16.918 101.742 24.9277C110.866 32.9374 116.765 43.9926 118.339 56.0312L132.401 78.15C133.326 79.6062 133.139 81.775 130.995 82.7L118.751 87.9375V106.25C118.751 109.565 117.434 112.745 115.09 115.089C112.746 117.433 109.566 118.75 106.251 118.75H93.7574L93.7511 137.5H37.5011V114.412C37.5011 107.037 34.7761 100.056 29.7199 93.7563C23.8305 86.4029 20.1385 77.5352 19.0692 68.175C17.9999 58.8148 19.5969 49.3429 23.6761 40.8507C27.7553 32.3585 34.1507 25.1916 42.1256 20.1757C50.1004 15.1598 59.33 12.4991 68.7511 12.5ZM65.4386 48.5187C63.3762 46.526 60.6136 45.423 57.7458 45.4473C54.878 45.4717 52.1345 46.6214 50.1062 48.6489C48.0779 50.6764 46.9271 53.4194 46.9016 56.2872C46.8761 59.1549 47.9779 61.918 49.9699 63.9813L68.7511 82.7688L87.5324 63.9813C88.5768 62.9721 89.4098 61.765 89.9828 60.4305C90.5557 59.096 90.8572 57.6607 90.8695 56.2084C90.8818 54.7561 90.6048 53.3159 90.0546 51.9719C89.5043 50.6278 88.6919 49.4068 87.6648 48.38C86.6376 47.3533 85.4163 46.5414 84.072 45.9917C82.7277 45.442 81.2874 45.1656 79.8351 45.1785C78.3829 45.1914 76.9477 45.4934 75.6134 46.0669C74.2791 46.6404 73.0724 47.4739 72.0636 48.5187L68.7511 51.8313L65.4386 48.5187Z" fill="#1E1D2F"/>
</svg>
